<?xml version="1.0" standalone="no"?>
<!DOCTYPE svg PUBLIC "-//W3C//DTD SVG 20010904//EN"
 "http://www.w3.org/TR/2001/REC-SVG-20010904/DTD/svg10.dtd">
<svg version="1.0" xmlns="http://www.w3.org/2000/svg"
 width="31.000000pt" height="25.000000pt" viewBox="0 0 31.000000 25.000000"
 preserveAspectRatio="xMidYMid meet">

<g transform="translate(0.000000,25.000000) scale(0.100000,-0.100000)"
fill="#000000" stroke="none">
<path d="M1 243 c1 -16 144 -236 154 -237 8 -1 153 220 154 237 1 4 -69 7
-154 7 -85 0 -155 -3 -154 -7z m113 -53 c-15 -22 -30 -40 -33 -40 -4 0 -17 18
-30 40 l-22 40 56 0 55 0 -26 -40z m145 0 c-13 -22 -26 -40 -30 -40 -3 0 -18
18 -33 40 l-26 40 55 0 56 0 -22 -40z m-75 -10 c32 -49 32 -53 -1 -106 l-27
-43 -28 42 c-15 23 -28 48 -28 55 0 11 48 92 55 92 1 0 14 -18 29 -40z"/>
</g>
</svg>
